<mxfile host="65bd71144e">
    <diagram id="8LUtqMyP6PqjKQgSo8ol" name="Page-1">
        <mxGraphModel dx="1471" dy="997" grid="1" gridSize="10" guides="1" tooltips="1" connect="1" arrows="1" fold="1" page="1" pageScale="1" pageWidth="1100" pageHeight="1700" math="0" shadow="0">
            <root>
                <mxCell id="0"/>
                <mxCell id="1" parent="0"/>
                <mxCell id="4" style="edgeStyle=none;html=1;fontFamily=Helvetica;fontSize=21;entryX=-0.006;entryY=0.325;entryDx=0;entryDy=0;entryPerimeter=0;" parent="1" source="3" target="8" edge="1">
                    <mxGeometry relative="1" as="geometry">
                        <mxPoint x="320" y="490" as="targetPoint"/>
                    </mxGeometry>
                </mxCell>
                <mxCell id="5" value="&lt;font style=&quot;font-size: 14px&quot;&gt;8'b memory bus&lt;/font&gt;" style="edgeLabel;html=1;align=center;verticalAlign=middle;resizable=0;points=[];fontSize=21;fontFamily=Helvetica;" parent="4" connectable="0" vertex="1">
                    <mxGeometry x="-0.2769" y="-2" relative="1" as="geometry">
                        <mxPoint x="13" y="-22" as="offset"/>
                    </mxGeometry>
                </mxCell>
                <mxCell id="3" value="data_mem[160]" style="whiteSpace=wrap;html=1;fontFamily=Helvetica;fontSize=21;" parent="1" vertex="1">
                    <mxGeometry y="460" width="180" height="60" as="geometry"/>
                </mxCell>
                <mxCell id="7" style="edgeStyle=none;html=1;fontFamily=Helvetica;fontSize=21;" parent="1" edge="1">
                    <mxGeometry relative="1" as="geometry">
                        <mxPoint x="301" y="699.5" as="targetPoint"/>
                        <mxPoint x="160" y="699.5" as="sourcePoint"/>
                    </mxGeometry>
                </mxCell>
                <mxCell id="25" value="&lt;font style=&quot;font-size: 14px&quot;&gt;9'b&lt;/font&gt;" style="edgeLabel;html=1;align=center;verticalAlign=middle;resizable=0;points=[];fontSize=21;fontFamily=Helvetica;" vertex="1" connectable="0" parent="7">
                    <mxGeometry x="-0.2339" y="1" relative="1" as="geometry">
                        <mxPoint x="-14" y="-29" as="offset"/>
                    </mxGeometry>
                </mxCell>
                <mxCell id="6" value="&lt;font style=&quot;font-size: 21px&quot;&gt;Instruction Memory&lt;/font&gt;" style="whiteSpace=wrap;html=1;fontFamily=Helvetica;fontSize=14;" parent="1" vertex="1">
                    <mxGeometry y="665" width="160" height="70" as="geometry"/>
                </mxCell>
                <mxCell id="17" style="edgeStyle=none;html=1;entryX=0.01;entryY=0.364;entryDx=0;entryDy=0;entryPerimeter=0;fontFamily=Helvetica;fontSize=21;" edge="1" parent="1" source="8">
                    <mxGeometry relative="1" as="geometry">
                        <mxPoint x="891.1999999999998" y="584.6400000000001" as="targetPoint"/>
                    </mxGeometry>
                </mxCell>
                <mxCell id="8" value="" style="whiteSpace=wrap;html=1;fontFamily=Helvetica;fontSize=21;" vertex="1" parent="1">
                    <mxGeometry x="300" y="320" width="490" height="530" as="geometry"/>
                </mxCell>
                <mxCell id="13" style="edgeStyle=none;html=1;entryX=0.5;entryY=0;entryDx=0;entryDy=0;fontFamily=Helvetica;fontSize=21;startArrow=none;" edge="1" parent="1" source="35" target="11">
                    <mxGeometry relative="1" as="geometry"/>
                </mxCell>
                <mxCell id="16" style="edgeStyle=none;html=1;fontFamily=Helvetica;fontSize=21;" edge="1" parent="1" source="2" target="3">
                    <mxGeometry relative="1" as="geometry"/>
                </mxCell>
                <mxCell id="23" style="edgeStyle=none;html=1;entryX=1;entryY=1;entryDx=0;entryDy=0;fontFamily=Helvetica;fontSize=21;" edge="1" parent="1" source="2" target="19">
                    <mxGeometry relative="1" as="geometry"/>
                </mxCell>
                <mxCell id="24" style="edgeStyle=none;html=1;entryX=0.038;entryY=1.001;entryDx=0;entryDy=0;entryPerimeter=0;fontFamily=Helvetica;fontSize=21;" edge="1" parent="1" source="2" target="20">
                    <mxGeometry relative="1" as="geometry"/>
                </mxCell>
                <object label="&lt;font style=&quot;font-size: 21px&quot;&gt;Reg File&lt;br&gt;16 registers:&lt;br&gt;8 general purpose&lt;br&gt;8 dedicated use&lt;br&gt;PC inlcuded&lt;br&gt;&lt;/font&gt;" id="2">
                    <mxCell style="whiteSpace=wrap;html=1;fontFamily=Helvetica;" parent="1" vertex="1">
                        <mxGeometry x="330" y="350" width="200" height="160" as="geometry"/>
                    </mxCell>
                </object>
                <mxCell id="9" value="CPU Core" style="text;html=1;resizable=0;autosize=1;align=center;verticalAlign=middle;points=[];fillColor=none;strokeColor=none;rounded=0;fontFamily=Helvetica;fontSize=21;" parent="1" vertex="1">
                    <mxGeometry x="320" y="805" width="110" height="30" as="geometry"/>
                </mxCell>
                <mxCell id="12" style="edgeStyle=none;html=1;entryX=0.438;entryY=1.019;entryDx=0;entryDy=0;entryPerimeter=0;fontFamily=Helvetica;fontSize=21;" edge="1" parent="1" source="10" target="2">
                    <mxGeometry relative="1" as="geometry"/>
                </mxCell>
                <mxCell id="30" style="edgeStyle=none;html=1;fontFamily=Helvetica;fontSize=14;" edge="1" parent="1" source="10" target="11">
                    <mxGeometry relative="1" as="geometry"/>
                </mxCell>
                <mxCell id="32" style="edgeStyle=none;html=1;entryX=0.75;entryY=1;entryDx=0;entryDy=0;fontFamily=Helvetica;fontSize=14;" edge="1" parent="1" source="10" target="2">
                    <mxGeometry relative="1" as="geometry"/>
                </mxCell>
                <mxCell id="10" value="&lt;font style=&quot;font-size: 19px&quot;&gt;Control&amp;nbsp; Unit&lt;/font&gt;" style="rounded=0;whiteSpace=wrap;html=1;" parent="1" vertex="1">
                    <mxGeometry x="320" y="660" width="180" height="100" as="geometry"/>
                </mxCell>
                <mxCell id="14" style="edgeStyle=none;html=1;fontFamily=Helvetica;fontSize=21;" edge="1" parent="1" source="11" target="2">
                    <mxGeometry relative="1" as="geometry"/>
                </mxCell>
                <mxCell id="11" value="ALU&lt;br&gt;xor, rxr, lsl, lsr, add, etc." style="rounded=0;whiteSpace=wrap;html=1;fontSize=19;" vertex="1" parent="1">
                    <mxGeometry x="560" y="510" width="200" height="120" as="geometry"/>
                </mxCell>
                <mxCell id="18" style="edgeStyle=none;html=1;entryX=1.006;entryY=0.574;entryDx=0;entryDy=0;entryPerimeter=0;fontFamily=Helvetica;fontSize=21;" edge="1" parent="1" target="8">
                    <mxGeometry relative="1" as="geometry">
                        <mxPoint x="890" y="621.6121227556348" as="sourcePoint"/>
                    </mxGeometry>
                </mxCell>
                <mxCell id="15" value="I/O&lt;br&gt;input: start signal&lt;br&gt;output: done signal" style="rounded=0;whiteSpace=wrap;html=1;fontSize=19;" vertex="1" parent="1">
                    <mxGeometry x="890" y="530" width="120" height="260" as="geometry"/>
                </mxCell>
                <mxCell id="21" style="edgeStyle=none;html=1;fontFamily=Helvetica;fontSize=21;" edge="1" parent="1" source="19" target="2">
                    <mxGeometry relative="1" as="geometry"/>
                </mxCell>
                <mxCell id="19" value="m_LUT:&lt;br&gt;converts the off parity bits to the correct bit to flip for single error correction on MSW&lt;br&gt;&lt;br&gt;8'b wires" style="whiteSpace=wrap;html=1;fontFamily=Helvetica;fontSize=21;" vertex="1" parent="1">
                    <mxGeometry x="170" y="10" width="210" height="220" as="geometry"/>
                </mxCell>
                <mxCell id="22" style="edgeStyle=none;html=1;fontFamily=Helvetica;fontSize=21;" edge="1" parent="1" source="20" target="2">
                    <mxGeometry relative="1" as="geometry"/>
                </mxCell>
                <mxCell id="20" value="l_LUT:&lt;br&gt;converts the off parity bits to the correct bit to flip for single error correction on LSW&lt;br&gt;&lt;br&gt;8'b wires" style="whiteSpace=wrap;html=1;fontFamily=Helvetica;fontSize=21;" vertex="1" parent="1">
                    <mxGeometry x="470" y="20" width="210" height="220" as="geometry"/>
                </mxCell>
                <mxCell id="28" value="&lt;span style=&quot;font-size: 14px&quot;&gt;1'b&lt;/span&gt;" style="edgeLabel;html=1;align=center;verticalAlign=middle;resizable=0;points=[];fontSize=21;fontFamily=Helvetica;" connectable="0" vertex="1" parent="1">
                    <mxGeometry x="400" y="560" as="geometry">
                        <mxPoint x="436" y="46" as="offset"/>
                    </mxGeometry>
                </mxCell>
                <mxCell id="31" value="4'b ALUop" style="text;html=1;resizable=0;autosize=1;align=center;verticalAlign=middle;points=[];fillColor=none;strokeColor=none;rounded=0;fontFamily=Helvetica;fontSize=14;" vertex="1" parent="1">
                    <mxGeometry x="510" y="650" width="80" height="20" as="geometry"/>
                </mxCell>
                <mxCell id="33" value="4'b reg1" style="text;html=1;resizable=0;autosize=1;align=center;verticalAlign=middle;points=[];fillColor=none;strokeColor=none;rounded=0;fontFamily=Helvetica;fontSize=14;" vertex="1" parent="1">
                    <mxGeometry x="360" y="540" width="60" height="20" as="geometry"/>
                </mxCell>
                <mxCell id="34" value="4'b reg2" style="text;html=1;resizable=0;autosize=1;align=center;verticalAlign=middle;points=[];fillColor=none;strokeColor=none;rounded=0;fontFamily=Helvetica;fontSize=14;" vertex="1" parent="1">
                    <mxGeometry x="450" y="575" width="60" height="20" as="geometry"/>
                </mxCell>
                <mxCell id="35" value="8'b data" style="text;html=1;resizable=0;autosize=1;align=center;verticalAlign=middle;points=[];fillColor=none;strokeColor=none;rounded=0;fontFamily=Helvetica;fontSize=14;" vertex="1" parent="1">
                    <mxGeometry x="545" y="480" width="60" height="20" as="geometry"/>
                </mxCell>
                <mxCell id="36" value="" style="edgeStyle=none;html=1;entryX=0.5;entryY=0;entryDx=0;entryDy=0;fontFamily=Helvetica;fontSize=21;endArrow=none;" edge="1" parent="1" source="2" target="35">
                    <mxGeometry relative="1" as="geometry">
                        <mxPoint x="530" y="464.78260869565224" as="sourcePoint"/>
                        <mxPoint x="660" y="510" as="targetPoint"/>
                    </mxGeometry>
                </mxCell>
            </root>
        </mxGraphModel>
    </diagram>
</mxfile>